<svg width="500" height="500" viewBox="0 0 500 500" fill="none" xmlns="http://www.w3.org/2000/svg">
<path d="M48 290.107C48 387.507 237.915 489 250.5 489C263.085 489 453 387.507 453 290.107V11H48V290.107Z" stroke="#FF10F0" stroke-width="12"/>
<path d="M48 290.107C48 387.507 237.915 489 250.5 489C263.085 489 453 387.507 453 290.107V11H48V290.107Z" stroke="#FF10F0" stroke-width="12"/>
<path d="M68 286.079C68 373.699 238.689 465 250 465C261.311 465 432 373.699 432 286.079V35H68V286.079Z" stroke="#FF10F0" stroke-width="12"/>
<path d="M298.169 334.561C299.505 354.341 296.699 373.159 290.553 386.176C275.732 417.5 255.085 439.247 235.7 454.93L222.655 448.094C242.306 433.057 263.393 412.09 278.393 380.403C287.56 361.023 290.072 316.117 266.929 277.064C255.344 257.512 241.477 242.128 229.268 228.583L229.141 228.442C225.106 223.925 221.257 219.675 217.57 215.371C190.685 183.99 188.44 160.066 191.3 145.552C193.945 132 201.615 123.232 207.895 119.383C208.056 119.276 208.189 119.143 208.296 119.063C211.343 116.897 215.565 117.592 217.73 120.64C224.491 130.129 237.639 136.009 252.124 136.009C273.236 136.009 290.58 123.313 290.82 107.702C290.981 98.2932 288.174 90.595 282.536 84.8747C273.61 75.84 258.644 72.6323 248.543 72.6323C237.372 72.6323 217.65 76.5082 198.889 87.4141C185.207 95.3797 167.889 109.6 163.293 132.187C154.581 174.928 173.341 198.558 202.951 229.725C218.051 245.576 235.154 263.592 249.318 287.489C256.293 299.25 260.168 311.332 260.863 323.334C261.584 335.416 259.045 347.578 253.38 359.42C253.246 359.687 253.139 359.927 253.006 360.168C245.443 375.752 231.279 387.005 214.176 391.015C209.552 392.11 204.822 392.672 200.172 392.672C186.89 392.672 173.849 388.288 162.999 380.002C144.003 365.465 119.542 349.935 90.7381 338.523C90.7381 338.523 82.5008 325.5 80.5008 320.575C118.34 332.901 149.304 352.324 171.203 369.096C182.614 377.837 197.126 380.964 211.049 377.676C224.144 374.602 235.02 366.022 240.846 354.1C240.926 353.886 241.06 353.673 241.14 353.459C250.494 333.866 249.344 313.952 237.666 294.278C224.314 271.78 207.826 254.413 193.264 239.074L193.144 238.947C178.526 223.55 165.725 209.41 157.253 192.356C147.659 173.084 145.308 152.475 150.011 129.38C155.596 101.875 175.987 84.9549 192.075 75.5994C213.133 63.357 235.047 59 248.516 59C261.825 59 280.318 63.3035 292.13 75.3054C300.414 83.7521 304.53 94.7114 304.316 107.863C304.129 119.33 298.437 129.995 288.255 137.854C278.554 145.392 265.673 149.535 252.097 149.535C236.143 149.535 221.151 143.708 211.343 133.951C208.697 136.838 205.838 141.489 204.528 148.172C202.257 159.746 204.448 179.285 227.778 206.55C231.359 210.72 235.154 214.917 239.136 219.354L239.139 219.357C251.805 233.416 266.182 249.373 278.5 270.141C292.798 294.332 297.1 318.522 298.169 334.561Z" fill="#FF10F0"/>
<path d="M376.15 214.222C378.823 214.222 381.308 212.618 382.377 210.132C392.238 187.251 392.452 165.894 383.045 146.595C378.101 136.438 370.458 126.948 360.33 118.341C352.419 111.605 342.932 105.377 332.189 99.8975C313.99 90.5687 298.49 86.4523 297.849 86.3186C294.214 85.3831 290.526 87.5482 289.591 91.1567C288.656 94.7653 290.82 98.4808 294.428 99.4163C295.016 99.5767 352.687 115.134 370.939 152.582C376.444 163.916 377.807 176.292 374.921 189.55C368.454 178.805 357.337 164.397 339.592 152.582C323.317 141.73 309.126 134.246 297.394 130.316C288.308 127.269 283.712 127.429 282.536 127.536L283.845 141.008C283.845 141.008 283.765 141.008 283.605 141.035C283.738 141.035 297.715 140.901 332.109 163.863C360.624 182.868 369.71 209.357 369.79 209.625C370.672 212.271 373.104 214.142 375.91 214.249C375.963 214.222 376.07 214.222 376.15 214.222Z" fill="#FF10F0"/>
<path d="M262.68 107.81C258.813 107.81 255.678 104.674 255.678 100.806C255.678 96.9385 258.813 93.803 262.68 93.803C266.547 93.803 269.681 96.9385 269.681 100.806C269.681 104.674 266.547 107.81 262.68 107.81Z" fill="#FF10F0"/>
</svg>
