<svg width="600" height="600" viewBox="0 0 600 600" fill="none" xmlns="http://www.w3.org/2000/svg">
<path d="M98 340.107C98 437.507 287.915 539 300.5 539C313.085 539 503 437.507 503 340.107V61H98V340.107Z" stroke="#FF10F0" stroke-width="8"/>
<path d="M98 340.107C98 437.507 287.915 539 300.5 539C313.085 539 503 437.507 503 340.107V61H98V340.107Z" stroke="#FF10F0" stroke-width="8"/>
<path d="M118 336.079C118 423.699 288.689 515 300 515C311.311 515 482 423.699 482 336.079V85H118V336.079Z" stroke="#FF10F0" stroke-width="8"/>
<rect x="118" y="85" width="364" height="91" stroke="#FF10F0" stroke-width="8"/>
<path d="M299.782 301.188C290.847 301.188 282.366 303.124 274.734 306.601M299.782 301.188L311.192 308.795M299.782 301.188C330.874 301.188 356.502 324.638 359.935 354.817M274.734 306.601L274.74 316.007M274.734 306.601C259.9 313.358 248.278 325.932 242.78 341.41M274.74 316.007L256.756 334.706M274.74 316.007L298.203 317.594M256.756 334.706L242.78 341.41M256.756 334.706L263.471 354.817M242.78 341.41C240.527 347.752 239.303 354.581 239.307 361.697C239.308 363.903 239.427 366.08 239.658 368.225M263.471 354.817L252.722 375.457M263.471 354.817L287.465 358.169M252.722 375.457L239.658 368.225M252.722 375.457L265.261 399.626M239.658 368.225C242.819 397.538 266.909 420.586 296.675 422.125M265.261 399.626L264.812 410.812M265.261 399.626L289.077 401.39M289.077 401.39L301.61 414.621M289.077 401.39L299.827 381.455M301.61 414.621L296.675 422.125M301.61 414.621L327.72 415.419M296.675 422.125C297.727 422.179 298.785 422.207 299.85 422.207C309.902 422.207 319.38 419.756 327.72 415.419M299.827 381.455L287.465 358.169M299.827 381.455L326.639 375.457M287.465 358.169L304.742 338.235M304.742 338.235L298.203 317.594M304.742 338.235L328.917 348.996M298.203 317.594L311.192 308.795M311.192 308.795L339.131 317.594L344.083 339.117M328.917 348.996L344.083 339.117M328.917 348.996L326.639 375.457M344.083 339.117L359.935 354.817M359.935 354.817C360.192 357.075 360.324 359.371 360.325 361.697C360.329 368.028 359.36 374.132 357.56 379.868M326.639 375.457L339.172 390.276M339.172 390.276L357.56 379.868M339.172 390.276L327.72 415.419M357.56 379.868C352.716 395.301 341.853 408.069 327.72 415.419" stroke="#FF10F0" stroke-width="4"/>
<path d="M387.344 319.015C384.689 319.015 382 318.83 379.317 318.455C369.131 317.046 361.614 312.048 357.113 308.112C356.235 307.347 354.699 306.377 352.922 305.251C346.488 301.202 335.73 294.419 329.218 280.656C327.59 277.209 326.846 272.224 327.2 266.985C327.484 262.737 328.623 256.33 332.41 249.923C335.673 244.422 339.481 240.195 342.836 236.472C343.891 235.296 344.896 234.185 345.844 233.08C352.024 225.859 352.604 220.684 352.002 217.618C351.655 215.848 350.898 214.616 350.197 213.852C347.6 216.436 343.629 217.979 339.403 217.979C335.807 217.979 332.396 216.882 329.826 214.885C327.13 212.804 325.622 209.979 325.572 206.942C325.516 203.459 326.606 200.556 328.8 198.319C331.929 195.14 336.827 194 340.352 194C343.919 194 349.723 195.154 355.301 198.397C359.562 200.874 364.962 205.356 366.442 212.641C367.688 218.758 367.065 224.216 364.524 229.321C362.28 233.838 358.889 237.583 355.018 241.661C351.153 245.732 346.772 250.341 343.225 256.316C340.132 261.527 339.828 266.801 342.305 271.991C342.326 272.047 342.362 272.104 342.383 272.161C343.926 275.318 346.807 277.591 350.275 278.405C353.963 279.276 357.806 278.447 360.829 276.132C369.408 269.562 383.238 261.456 400.445 260.168C409.973 259.452 419.528 260.925 428.843 264.557C439.637 268.769 450.276 275.955 460.461 285.902C461.013 286.441 461.155 287.276 460.822 287.97C460.482 288.664 459.739 289.067 458.975 288.961C458.939 288.954 454.763 288.479 448.23 290.306C442.178 292.012 432.807 296.09 422.522 305.924C422.189 306.257 418.176 310.144 410.985 313.613C406.681 315.687 402.116 317.181 397.423 318.052C394.11 318.71 390.748 319.015 387.344 319.015ZM351.11 209.993C352.774 211.013 354.805 213.335 355.506 216.924C356.263 220.769 355.669 227.105 348.548 235.417C347.571 236.556 346.552 237.682 345.483 238.879C342.242 242.475 338.554 246.56 335.475 251.757C329.345 262.1 330.01 273.994 332.438 279.127C338.504 291.941 348.329 298.136 354.819 302.228C356.794 303.482 358.358 304.466 359.463 305.414C363.603 309.032 370.49 313.613 379.805 314.908C392.773 316.707 402.986 313.506 409.272 310.49C416.123 307.213 419.946 303.453 419.988 303.411C419.995 303.404 420.002 303.397 420.009 303.389C424.815 298.788 429.862 294.986 434.994 292.083C439.128 289.74 443.318 287.984 447.48 286.837C450.353 286.044 452.817 285.662 454.735 285.492C436.785 269.116 419.854 263.509 405.096 263.509C387.223 263.509 372.522 271.736 363.002 279.021C360.128 281.216 356.674 282.377 353.156 282.377C351.924 282.377 350.672 282.228 349.447 281.938C344.917 280.876 341.166 277.895 339.162 273.768C339.127 273.704 339.099 273.64 339.063 273.57C337.563 270.433 336.89 267.212 337.082 264.012C337.266 260.833 338.292 257.633 340.139 254.518C343.891 248.189 348.421 243.417 352.42 239.218C360.263 230.963 365.231 224.705 362.924 213.384C361.706 207.402 357.12 203.636 353.496 201.526C348.527 198.637 343.303 197.611 340.345 197.611C337.669 197.611 333.705 198.46 331.341 200.853C329.848 202.368 329.104 204.407 329.147 206.899C329.211 211.034 333.804 214.397 339.396 214.397C343.232 214.397 346.715 212.839 348.506 210.326C349.079 209.519 350.197 209.335 351.004 209.908C351.033 209.929 351.068 209.965 351.11 209.993Z" fill="#FF10F0"/>
<path d="M395.894 332.827C393.509 332.827 391.35 331.497 390.288 329.358L384.88 318.555C384.435 317.67 384.803 316.594 385.68 316.148C386.565 315.702 387.641 316.07 388.087 316.948L393.495 327.751C393.955 328.672 394.875 329.238 395.901 329.238C396.991 329.238 397.968 328.594 398.386 327.581L403.878 314.392C404.26 313.479 405.308 313.047 406.228 313.422C407.141 313.804 407.573 314.852 407.198 315.772L401.705 328.962C400.714 331.305 398.435 332.827 395.894 332.827Z" fill="#FF10F0"/>
<path d="M395.859 423.59H386.593C385.602 423.59 384.803 422.79 384.803 421.799C384.803 420.807 385.602 420.007 386.593 420.007H394.054V331.036C394.054 330.045 394.854 329.245 395.845 329.245C396.836 329.245 397.635 330.045 397.635 331.036V421.799C397.649 422.783 396.857 423.59 395.859 423.59Z" fill="#FF10F0"/>
<path d="M387.386 301.089C387.018 301.089 386.65 301.082 386.282 301.053C383.068 300.855 380.131 299.793 377.795 298.002C375.962 296.593 374.567 294.759 373.761 292.699C372.918 290.533 372.727 288.111 373.223 285.69C373.831 282.688 375.629 279.835 378.276 277.669C381.688 274.886 387.506 271.325 395.894 270.221C406.03 268.883 417.157 271.481 428.97 277.945C429.614 278.299 429.99 279.021 429.89 279.75C429.791 280.479 429.253 281.081 428.531 281.258C428.51 281.265 425.856 281.917 421.715 283.637C420.802 284.019 419.755 283.58 419.372 282.667C418.99 281.754 419.429 280.706 420.342 280.324C421.489 279.849 422.522 279.453 423.421 279.12C400.028 267.927 385.751 276.175 380.549 280.437C378.531 282.087 377.186 284.196 376.74 286.384C376.047 289.832 377.222 293.018 379.982 295.135C382.998 297.457 388.526 298.802 394.981 295.602C395.866 295.163 396.942 295.531 397.387 296.416C397.826 297.301 397.458 298.377 396.573 298.823C393.587 300.324 390.43 301.089 387.386 301.089Z" fill="#FF10F0"/>
<path d="M306.546 235.112C305.838 235.112 305.18 234.688 304.897 234.029C302.285 227.969 302.229 222.312 304.72 217.201C306.03 214.51 308.054 211.997 310.737 209.717C312.832 207.933 315.344 206.284 318.19 204.832C323.01 202.361 327.115 201.271 327.285 201.236C328.248 200.988 329.225 201.561 329.472 202.517C329.72 203.473 329.147 204.457 328.191 204.705C328.036 204.747 312.761 208.868 307.926 218.786C306.468 221.788 306.107 225.066 306.872 228.578C308.585 225.732 311.529 221.916 316.229 218.786C320.54 215.912 324.298 213.93 327.406 212.889C329.812 212.082 331.03 212.124 331.341 212.153L330.994 215.721C330.994 215.721 331.015 215.721 331.058 215.728C331.023 215.728 327.321 215.693 318.211 221.774C310.659 226.808 308.252 233.824 308.231 233.895C307.997 234.596 307.353 235.091 306.61 235.119C306.596 235.112 306.567 235.112 306.546 235.112Z" fill="#FF10F0"/>
<path d="M438.377 368.021H368.084C367.093 368.021 366.293 367.221 366.293 366.23V356.962C366.293 355.971 367.093 355.171 368.084 355.171C369.075 355.171 369.875 355.971 369.875 356.962V364.424H434.045L399.327 329.698C398.626 328.997 398.626 327.864 399.327 327.163C400.028 326.462 401.16 326.462 401.861 327.163L439.651 364.962C440.168 365.479 440.324 366.244 440.041 366.916C439.758 367.589 439.106 368.021 438.377 368.021Z" fill="#FF10F0"/>
<path d="M419.415 289.775C419.202 289.775 418.997 289.74 418.792 289.662L403.454 283.991C402.526 283.644 402.052 282.618 402.399 281.683C402.746 280.756 403.772 280.281 404.706 280.628L420.045 286.299C420.972 286.646 421.446 287.673 421.099 288.607C420.83 289.329 420.144 289.775 419.415 289.775Z" fill="#FF10F0"/>
<path d="M410.355 296.671C410.121 296.671 409.887 296.621 409.661 296.536L394.684 290.249C393.77 289.867 393.346 288.812 393.721 287.899C394.103 286.986 395.158 286.561 396.071 286.936L411.048 293.216C411.961 293.598 412.386 294.653 412.011 295.566C411.721 296.246 411.055 296.671 410.355 296.671Z" fill="#FF10F0"/>
<path d="M336.6 206.928C337.624 206.928 338.455 206.097 338.455 205.073C338.455 204.048 337.624 203.218 336.6 203.218C335.576 203.218 334.746 204.048 334.746 205.073C334.746 206.097 335.576 206.928 336.6 206.928Z" fill="#FF10F0"/>
<path d="M212.656 319.015C215.311 319.015 218 318.83 220.683 318.455C230.869 317.046 238.386 312.048 242.887 308.112C243.765 307.347 245.301 306.377 247.078 305.251C253.512 301.202 264.27 294.419 270.782 280.656C272.41 277.209 273.154 272.224 272.8 266.985C272.516 262.737 271.377 256.33 267.59 249.923C264.327 244.422 260.519 240.195 257.164 236.472C256.109 235.296 255.104 234.185 254.156 233.08C247.976 225.859 247.396 220.684 247.998 217.618C248.345 215.848 249.102 214.616 249.803 213.852C252.4 216.436 256.371 217.979 260.597 217.979C264.193 217.979 267.604 216.882 270.174 214.885C272.87 212.804 274.378 209.979 274.428 206.942C274.484 203.459 273.394 200.556 271.2 198.319C268.071 195.14 263.173 194 259.648 194C256.081 194 250.277 195.154 244.699 198.397C240.438 200.874 235.038 205.356 233.558 212.641C232.312 218.758 232.935 224.216 235.476 229.321C237.72 233.838 241.111 237.583 244.982 241.661C248.847 245.732 253.228 250.341 256.775 256.316C259.868 261.527 260.172 266.801 257.695 271.991C257.674 272.047 257.638 272.104 257.617 272.161C256.074 275.318 253.193 277.591 249.725 278.405C246.037 279.276 242.194 278.447 239.171 276.132C230.592 269.562 216.762 261.456 199.555 260.168C190.027 259.452 180.472 260.925 171.157 264.557C160.363 268.769 149.724 275.955 139.539 285.902C138.987 286.441 138.845 287.276 139.178 287.97C139.518 288.664 140.261 289.067 141.025 288.961C141.061 288.954 145.237 288.479 151.77 290.306C157.822 292.012 167.193 296.09 177.478 305.924C177.811 306.257 181.824 310.144 189.015 313.613C193.319 315.687 197.884 317.181 202.577 318.052C205.89 318.71 209.252 319.015 212.656 319.015ZM248.89 209.993C247.226 211.013 245.195 213.335 244.494 216.924C243.737 220.769 244.331 227.105 251.452 235.417C252.429 236.556 253.448 237.682 254.517 238.879C257.758 242.475 261.446 246.56 264.525 251.757C270.655 262.1 269.99 273.994 267.562 279.127C261.496 291.941 251.671 298.136 245.181 302.228C243.206 303.482 241.642 304.466 240.537 305.414C236.397 309.032 229.51 313.613 220.195 314.908C207.227 316.707 197.014 313.506 190.728 310.49C183.877 307.213 180.054 303.453 180.012 303.411C180.005 303.404 179.998 303.397 179.991 303.389C175.185 298.788 170.138 294.986 165.006 292.083C160.872 289.74 156.682 287.984 152.52 286.837C149.647 286.044 147.183 285.662 145.265 285.492C163.215 269.116 180.146 263.509 194.904 263.509C212.777 263.509 227.478 271.736 236.998 279.021C239.872 281.216 243.326 282.377 246.844 282.377C248.076 282.377 249.328 282.228 250.553 281.938C255.083 280.876 258.834 277.895 260.838 273.768C260.873 273.704 260.901 273.64 260.937 273.57C262.437 270.433 263.11 267.212 262.918 264.012C262.734 260.833 261.708 257.633 259.861 254.518C256.109 248.189 251.579 243.417 247.58 239.218C239.737 230.963 234.769 224.705 237.076 213.384C238.294 207.402 242.88 203.636 246.504 201.526C251.473 198.637 256.697 197.611 259.655 197.611C262.331 197.611 266.295 198.46 268.659 200.853C270.152 202.368 270.896 204.407 270.853 206.899C270.789 211.034 266.196 214.397 260.604 214.397C256.768 214.397 253.285 212.839 251.494 210.326C250.921 209.519 249.803 209.335 248.996 209.908C248.967 209.929 248.932 209.965 248.89 209.993Z" fill="#FF10F0"/>
<path d="M204.106 332.827C206.491 332.827 208.65 331.497 209.712 329.358L215.12 318.555C215.565 317.67 215.197 316.594 214.32 316.148C213.435 315.702 212.359 316.07 211.913 316.948L206.505 327.751C206.045 328.672 205.125 329.238 204.099 329.238C203.009 329.238 202.032 328.594 201.614 327.581L196.122 314.392C195.74 313.479 194.692 313.047 193.772 313.422C192.859 313.804 192.427 314.852 192.802 315.772L198.295 328.962C199.286 331.305 201.565 332.827 204.106 332.827Z" fill="#FF10F0"/>
<path d="M204.142 423.59H213.407C214.398 423.59 215.198 422.79 215.198 421.799C215.198 420.807 214.398 420.007 213.407 420.007H205.946V331.036C205.946 330.045 205.147 329.245 204.156 329.245C203.165 329.245 202.365 330.045 202.365 331.036V421.799C202.351 422.783 203.143 423.59 204.142 423.59Z" fill="#FF10F0"/>
<path d="M212.614 301.089C212.982 301.089 213.35 301.082 213.718 301.053C216.932 300.855 219.869 299.793 222.205 298.002C224.038 296.593 225.432 294.759 226.239 292.699C227.082 290.533 227.273 288.111 226.777 285.69C226.169 282.688 224.371 279.835 221.723 277.669C218.312 274.886 212.494 271.325 204.106 270.221C193.97 268.883 182.843 271.481 171.03 277.945C170.385 278.299 170.01 279.021 170.109 279.75C170.209 280.479 170.746 281.081 171.468 281.258C171.49 281.265 174.144 281.917 178.285 283.637C179.198 284.019 180.245 283.58 180.628 282.667C181.01 281.754 180.571 280.706 179.658 280.324C178.511 279.849 177.478 279.453 176.579 279.12C199.972 267.927 214.249 276.175 219.451 280.437C221.469 282.087 222.813 284.196 223.259 286.384C223.953 289.832 222.778 293.018 220.018 295.135C217.002 297.457 211.474 298.802 205.019 295.602C204.134 295.163 203.058 295.531 202.612 296.416C202.174 297.301 202.542 298.377 203.426 298.823C206.413 300.324 209.57 301.089 212.614 301.089Z" fill="#FF10F0"/>
<path d="M293.454 235.112C294.162 235.112 294.82 234.688 295.103 234.029C297.715 227.969 297.772 222.312 295.28 217.201C293.971 214.51 291.946 211.997 289.264 209.717C287.168 207.933 284.656 206.284 281.81 204.832C276.99 202.361 272.885 201.271 272.715 201.236C271.752 200.988 270.775 201.561 270.528 202.517C270.28 203.473 270.853 204.457 271.809 204.705C271.965 204.747 287.239 208.868 292.074 218.786C293.532 221.788 293.893 225.066 293.128 228.578C291.415 225.732 288.471 221.916 283.771 218.786C279.46 215.912 275.702 213.93 272.595 212.889C270.188 212.082 268.97 212.124 268.659 212.153L269.006 215.721C269.006 215.721 268.985 215.721 268.942 215.728C268.978 215.728 272.679 215.693 281.789 221.774C289.341 226.808 291.748 233.824 291.769 233.895C292.003 234.596 292.647 235.091 293.39 235.119C293.404 235.112 293.433 235.112 293.454 235.112Z" fill="#FF10F0"/>
<path d="M161.623 368.021H231.916C232.907 368.021 233.707 367.221 233.707 366.23V356.962C233.707 355.971 232.907 355.171 231.916 355.171C230.925 355.171 230.125 355.971 230.125 356.962V364.424H165.955L200.673 329.698C201.374 328.997 201.374 327.864 200.673 327.163C199.972 326.462 198.84 326.462 198.139 327.163L160.349 364.962C159.832 365.479 159.676 366.244 159.959 366.916C160.243 367.589 160.894 368.021 161.623 368.021Z" fill="#FF10F0"/>
<path d="M180.585 289.775C180.798 289.775 181.003 289.74 181.208 289.662L196.547 283.991C197.474 283.644 197.948 282.618 197.601 281.683C197.254 280.756 196.228 280.281 195.294 280.628L179.955 286.299C179.028 286.646 178.554 287.673 178.901 288.607C179.17 289.329 179.856 289.775 180.585 289.775Z" fill="#FF10F0"/>
<path d="M189.645 296.671C189.879 296.671 190.113 296.621 190.339 296.536L205.316 290.249C206.23 289.867 206.654 288.812 206.279 287.899C205.897 286.986 204.842 286.561 203.929 286.936L188.952 293.216C188.039 293.598 187.614 294.653 187.989 295.566C188.279 296.246 188.945 296.671 189.645 296.671Z" fill="#FF10F0"/>
<path d="M263.4 206.928C262.376 206.928 261.545 206.097 261.545 205.073C261.545 204.048 262.376 203.218 263.4 203.218C264.424 203.218 265.254 204.048 265.254 205.073C265.254 206.097 264.424 206.928 263.4 206.928Z" fill="#FF10F0"/>
<path d="M155.76 130.36H158.32C159.467 130.36 160.387 130.013 161.08 129.32C161.8 128.627 162.16 127.547 162.16 126.08C162.16 124.64 161.853 123.547 161.24 122.8C160.627 122.053 159.6 121.68 158.16 121.68H155.76V130.36ZM150 117.44H160.08C161.547 117.44 162.773 117.693 163.76 118.2C164.773 118.68 165.587 119.32 166.2 120.12C166.813 120.92 167.253 121.84 167.52 122.88C167.787 123.893 167.92 124.933 167.92 126C167.92 127.467 167.693 128.747 167.24 129.84C166.813 130.933 166.2 131.827 165.4 132.52C164.627 133.213 163.68 133.733 162.56 134.08C161.44 134.427 160.2 134.6 158.84 134.6H155.76V146H150V117.44Z" fill="#FF10F0"/>
<path d="M171.022 146V117.44H176.782V146H171.022Z" fill="#FF10F0"/>
<path d="M187.695 117.44L194.655 137H194.735V117.44H200.015V146H193.455L186.415 126H186.335V146H181.055V117.44H187.695Z" fill="#FF10F0"/>
<path d="M209.783 117.44V128.88H209.863L217.143 117.44H223.383L215.623 129.68L224.263 146H217.783L211.903 134.28L209.783 137.52V146H204.023V117.44H209.783Z" fill="#FF10F0"/>
<path d="M235.117 117.44H251.077V122.16H240.877V128.88H250.477V133.6H240.877V146H235.117V117.44Z" fill="#FF10F0"/>
<path d="M253.633 146V117.44H259.393V141.28H269.593V146H253.633Z" fill="#FF10F0"/>
<path d="M284.068 135.24L281.308 122.4H281.228L278.468 135.24H284.068ZM284.828 117.44L292.388 146H286.388L285.068 139.96H277.468L276.148 146H270.148L277.708 117.44H284.828Z" fill="#FF10F0"/>
<path d="M294.495 117.44H303.055L307.135 137.6H307.215L311.335 117.44H319.855V146H314.575V123.2H314.495L309.415 146H304.935L299.855 123.2H299.775V146H294.495V117.44Z" fill="#FF10F0"/>
<path d="M324.264 146V117.44H330.024V146H324.264Z" fill="#FF10F0"/>
<path d="M340.937 117.44L347.897 137H347.977V117.44H353.257V146H346.697L339.657 126H339.577V146H334.297V117.44H340.937Z" fill="#FF10F0"/>
<path d="M369.946 125.92C369.946 125.387 369.879 124.84 369.746 124.28C369.639 123.72 369.452 123.213 369.186 122.76C368.919 122.28 368.572 121.893 368.146 121.6C367.746 121.28 367.252 121.12 366.666 121.12C365.279 121.12 364.279 121.893 363.666 123.44C363.052 124.987 362.746 127.547 362.746 131.12C362.746 132.827 362.799 134.373 362.906 135.76C363.012 137.147 363.199 138.333 363.466 139.32C363.759 140.28 364.159 141.027 364.666 141.56C365.199 142.067 365.879 142.32 366.706 142.32C367.052 142.32 367.426 142.227 367.826 142.04C368.252 141.853 368.639 141.573 368.986 141.2C369.359 140.827 369.666 140.36 369.906 139.8C370.146 139.213 370.266 138.533 370.266 137.76V134.84H366.466V130.6H375.786V146H371.546V143.36H371.466C370.772 144.48 369.932 145.28 368.946 145.76C367.986 146.213 366.826 146.44 365.466 146.44C363.706 146.44 362.266 146.133 361.146 145.52C360.052 144.907 359.186 143.96 358.546 142.68C357.932 141.4 357.519 139.827 357.306 137.96C357.092 136.067 356.986 133.88 356.986 131.4C356.986 129 357.132 126.893 357.426 125.08C357.746 123.267 358.279 121.76 359.026 120.56C359.772 119.333 360.759 118.413 361.986 117.8C363.212 117.187 364.746 116.88 366.586 116.88C369.732 116.88 371.999 117.667 373.386 119.24C374.772 120.787 375.466 123.013 375.466 125.92H369.946Z" fill="#FF10F0"/>
<path d="M384.652 131.72C384.652 133.64 384.692 135.28 384.772 136.64C384.879 137.973 385.066 139.067 385.332 139.92C385.626 140.747 386.026 141.36 386.532 141.76C387.066 142.133 387.759 142.32 388.612 142.32C389.466 142.32 390.146 142.133 390.652 141.76C391.186 141.36 391.586 140.747 391.852 139.92C392.146 139.067 392.332 137.973 392.412 136.64C392.519 135.28 392.572 133.64 392.572 131.72C392.572 129.8 392.519 128.173 392.412 126.84C392.332 125.507 392.146 124.413 391.852 123.56C391.586 122.707 391.186 122.093 390.652 121.72C390.146 121.32 389.466 121.12 388.612 121.12C387.759 121.12 387.066 121.32 386.532 121.72C386.026 122.093 385.626 122.707 385.332 123.56C385.066 124.413 384.879 125.507 384.772 126.84C384.692 128.173 384.652 129.8 384.652 131.72ZM378.892 131.72C378.892 129.56 378.986 127.573 379.172 125.76C379.386 123.92 379.826 122.347 380.492 121.04C381.186 119.733 382.172 118.72 383.452 118C384.732 117.253 386.452 116.88 388.612 116.88C390.772 116.88 392.492 117.253 393.772 118C395.052 118.72 396.026 119.733 396.692 121.04C397.386 122.347 397.826 123.92 398.012 125.76C398.226 127.573 398.332 129.56 398.332 131.72C398.332 133.907 398.226 135.907 398.012 137.72C397.826 139.533 397.386 141.093 396.692 142.4C396.026 143.707 395.052 144.707 393.772 145.4C392.492 146.093 390.772 146.44 388.612 146.44C386.452 146.44 384.732 146.093 383.452 145.4C382.172 144.707 381.186 143.707 380.492 142.4C379.826 141.093 379.386 139.533 379.172 137.72C378.986 135.907 378.892 133.907 378.892 131.72Z" fill="#FF10F0"/>
<path d="M415.968 137.08V137.92C415.968 138.587 416.021 139.2 416.128 139.76C416.235 140.293 416.435 140.747 416.728 141.12C417.021 141.493 417.408 141.787 417.888 142C418.395 142.213 419.021 142.32 419.768 142.32C420.648 142.32 421.435 142.04 422.128 141.48C422.848 140.893 423.208 140 423.208 138.8C423.208 138.16 423.115 137.613 422.928 137.16C422.768 136.68 422.488 136.253 422.088 135.88C421.688 135.507 421.155 135.173 420.488 134.88C419.848 134.56 419.048 134.24 418.088 133.92C416.808 133.493 415.701 133.027 414.768 132.52C413.835 132.013 413.048 131.427 412.408 130.76C411.795 130.067 411.341 129.28 411.048 128.4C410.755 127.493 410.608 126.453 410.608 125.28C410.608 122.453 411.395 120.347 412.968 118.96C414.541 117.573 416.701 116.88 419.448 116.88C420.728 116.88 421.901 117.027 422.968 117.32C424.061 117.587 424.995 118.04 425.768 118.68C426.568 119.293 427.181 120.093 427.608 121.08C428.061 122.04 428.288 123.2 428.288 124.56V125.36H422.768C422.768 124 422.528 122.96 422.048 122.24C421.568 121.493 420.768 121.12 419.648 121.12C419.008 121.12 418.475 121.213 418.048 121.4C417.621 121.587 417.275 121.84 417.008 122.16C416.768 122.453 416.595 122.8 416.488 123.2C416.408 123.6 416.368 124.013 416.368 124.44C416.368 125.32 416.555 126.067 416.928 126.68C417.301 127.267 418.101 127.813 419.328 128.32L423.768 130.24C424.861 130.72 425.755 131.227 426.448 131.76C427.141 132.267 427.688 132.827 428.088 133.44C428.515 134.027 428.808 134.68 428.968 135.4C429.128 136.12 429.208 136.92 429.208 137.8C429.208 140.813 428.328 143.013 426.568 144.4C424.835 145.76 422.408 146.44 419.288 146.44C416.035 146.44 413.701 145.733 412.288 144.32C410.901 142.907 410.208 140.88 410.208 138.24V137.08H415.968Z" fill="#FF10F0"/>
<path d="M444.27 127.08C444.27 125 444.017 123.493 443.51 122.56C443.03 121.6 442.137 121.12 440.83 121.12C440.11 121.12 439.51 121.32 439.03 121.72C438.577 122.093 438.217 122.72 437.95 123.6C437.684 124.453 437.497 125.587 437.39 127C437.284 128.387 437.23 130.093 437.23 132.12C437.23 134.28 437.297 136.027 437.43 137.36C437.59 138.693 437.817 139.733 438.11 140.48C438.43 141.2 438.817 141.693 439.27 141.96C439.75 142.2 440.297 142.32 440.91 142.32C441.417 142.32 441.884 142.24 442.31 142.08C442.764 141.893 443.15 141.547 443.47 141.04C443.79 140.507 444.044 139.773 444.23 138.84C444.417 137.88 444.51 136.627 444.51 135.08H450.27C450.27 136.627 450.15 138.093 449.91 139.48C449.67 140.867 449.217 142.08 448.55 143.12C447.91 144.16 446.99 144.973 445.79 145.56C444.617 146.147 443.084 146.44 441.19 146.44C439.03 146.44 437.31 146.093 436.03 145.4C434.75 144.707 433.764 143.707 433.07 142.4C432.404 141.093 431.964 139.533 431.75 137.72C431.564 135.907 431.47 133.907 431.47 131.72C431.47 129.56 431.564 127.573 431.75 125.76C431.964 123.92 432.404 122.347 433.07 121.04C433.764 119.733 434.75 118.72 436.03 118C437.31 117.253 439.03 116.88 441.19 116.88C443.244 116.88 444.857 117.213 446.03 117.88C447.23 118.547 448.124 119.4 448.71 120.44C449.297 121.453 449.657 122.56 449.79 123.76C449.95 124.933 450.03 126.04 450.03 127.08H444.27Z" fill="#FF10F0"/>
</svg>
